<?xml version="1.0" encoding="iso-8859-1"?>
<!-- Generator: Adobe Illustrator 19.2.0, SVG Export Plug-In . SVG Version: 6.00 Build 0)  -->
<svg version="1.1" id="Layer_1" xmlns="http://www.w3.org/2000/svg" xmlns:xlink="http://www.w3.org/1999/xlink" x="0px" y="0px"
	 width="1792px" height="1792px" viewBox="0 0 1792 1792" enable-background="new 0 0 1792 1792" xml:space="preserve">
<path d="M1664,1344v128c0,17.3-6.3,32.3-19,45s-27.7,19-45,19H192c-17.3,0-32.3-6.3-45-19s-19-27.7-19-45v-128
	c0-17.3,6.3-32.3,19-45s27.7-19,45-19h1408c17.3,0,32.3,6.3,45,19S1664,1326.7,1664,1344z M1664,832v128c0,17.3-6.3,32.3-19,45
	s-27.7,19-45,19H192c-17.3,0-32.3-6.3-45-19s-19-27.7-19-45V832c0-17.3,6.3-32.3,19-45s27.7-19,45-19h1408c17.3,0,32.3,6.3,45,19
	S1664,814.7,1664,832z M1664,320v128c0,17.3-6.3,32.3-19,45s-27.7,19-45,19H192c-17.3,0-32.3-6.3-45-19s-19-27.7-19-45V320
	c0-17.3,6.3-32.3,19-45s27.7-19,45-19h1408c17.3,0,32.3,6.3,45,19S1664,302.7,1664,320z"/>
</svg>
