<?xml version="1.0" encoding="iso-8859-1"?>
<!-- Generator: Adobe Illustrator 19.2.0, SVG Export Plug-In . SVG Version: 6.00 Build 0)  -->
<svg version="1.1" id="Layer_1" xmlns="http://www.w3.org/2000/svg" xmlns:xlink="http://www.w3.org/1999/xlink" x="0px" y="0px"
	 width="1792px" height="1792px" viewBox="0 0 1792 1792" enable-background="new 0 0 1792 1792" xml:space="preserve">
<path d="M1325,1024h-109c-17.3,0-32.3-6.3-45-19s-19-27.7-19-45V832c0-17.3,6.3-32.3,19-45s27.7-19,45-19h109
	c-21.3-72-58.8-134.8-112.5-188.5S1096,488.3,1024,467v109c0,17.3-6.3,32.3-19,45s-27.7,19-45,19H832c-17.3,0-32.3-6.3-45-19
	s-19-27.7-19-45V467c-72,21.3-134.8,58.8-188.5,112.5S488.3,696,467,768h109c17.3,0,32.3,6.3,45,19s19,27.7,19,45v128
	c0,17.3-6.3,32.3-19,45s-27.7,19-45,19H467c21.3,72,58.8,134.8,112.5,188.5S696,1303.7,768,1325v-109c0-17.3,6.3-32.3,19-45
	s27.7-19,45-19h128c17.3,0,32.3,6.3,45,19s19,27.7,19,45v109c72-21.3,134.8-58.8,188.5-112.5S1303.7,1096,1325,1024z M1664,832v128
	c0,17.3-6.3,32.3-19,45s-27.7,19-45,19h-143c-24.7,107.3-76.2,200.2-154.5,278.5S1131.3,1432.3,1024,1457v143c0,17.3-6.3,32.3-19,45
	s-27.7,19-45,19H832c-17.3,0-32.3-6.3-45-19s-19-27.7-19-45v-143c-107.3-24.7-200.2-76.2-278.5-154.5S359.7,1131.3,335,1024H192
	c-17.3,0-32.3-6.3-45-19s-19-27.7-19-45V832c0-17.3,6.3-32.3,19-45s27.7-19,45-19h143c24.7-107.3,76.2-200.2,154.5-278.5
	S660.7,359.7,768,335V192c0-17.3,6.3-32.3,19-45s27.7-19,45-19h128c17.3,0,32.3,6.3,45,19s19,27.7,19,45v143
	c107.3,24.7,200.2,76.2,278.5,154.5S1432.3,660.7,1457,768h143c17.3,0,32.3,6.3,45,19S1664,814.7,1664,832z"/>
</svg>
