<?xml version="1.0" encoding="iso-8859-1"?>
<!-- Generator: Adobe Illustrator 19.2.0, SVG Export Plug-In . SVG Version: 6.00 Build 0)  -->
<svg version="1.1" id="Layer_1" xmlns="http://www.w3.org/2000/svg" xmlns:xlink="http://www.w3.org/1999/xlink" x="0px" y="0px"
	 width="2048px" height="1792px" viewBox="0 0 2048 1792" enable-background="new 0 0 2048 1792" xml:space="preserve">
<path d="M681,1399l-50,50c-6.7,6.7-14.3,10-23,10s-16.3-3.3-23-10L119,983c-6.7-6.7-10-14.3-10-23s3.3-16.3,10-23l466-466
	c6.7-6.7,14.3-10,23-10s16.3,3.3,23,10l50,50c6.7,6.7,10,14.3,10,23s-3.3,16.3-10,23L288,960l393,393c6.7,6.7,10,14.3,10,23
	S687.7,1392.3,681,1399z M1272,332L899,1623c-2.7,8.7-7.8,15.2-15.5,19.5s-15.5,5.2-23.5,2.5l-62-17c-8.7-2.7-15.2-7.8-19.5-15.5
	s-5.2-15.8-2.5-24.5l373-1291c2.7-8.7,7.8-15.2,15.5-19.5s15.5-5.2,23.5-2.5l62,17c8.7,2.7,15.2,7.8,19.5,15.5
	S1274.7,323.3,1272,332z M1929,983l-466,466c-6.7,6.7-14.3,10-23,10s-16.3-3.3-23-10l-50-50c-6.7-6.7-10-14.3-10-23s3.3-16.3,10-23
	l393-393l-393-393c-6.7-6.7-10-14.3-10-23s3.3-16.3,10-23l50-50c6.7-6.7,14.3-10,23-10s16.3,3.3,23,10l466,466
	c6.7,6.7,10,14.3,10,23S1935.7,976.3,1929,983z"/>
</svg>
