<?xml version="1.0" encoding="iso-8859-1"?>
<!-- Generator: Adobe Illustrator 19.2.0, SVG Export Plug-In . SVG Version: 6.00 Build 0)  -->
<svg version="1.1" id="Layer_1" xmlns="http://www.w3.org/2000/svg" xmlns:xlink="http://www.w3.org/1999/xlink" x="0px" y="0px"
	 width="1792px" height="1792px" viewBox="0 0 1792 1792" enable-background="new 0 0 1792 1792" xml:space="preserve">
<path d="M576,736v192c0,26.7-9.3,49.3-28,68s-41.3,28-68,28H288c-26.7,0-49.3-9.3-68-28s-28-41.3-28-68V736c0-26.7,9.3-49.3,28-68
	s41.3-28,68-28h192c26.7,0,49.3,9.3,68,28S576,709.3,576,736z M1088,736v192c0,26.7-9.3,49.3-28,68s-41.3,28-68,28H800
	c-26.7,0-49.3-9.3-68-28s-28-41.3-28-68V736c0-26.7,9.3-49.3,28-68s41.3-28,68-28h192c26.7,0,49.3,9.3,68,28S1088,709.3,1088,736z
	 M1600,736v192c0,26.7-9.3,49.3-28,68s-41.3,28-68,28h-192c-26.7,0-49.3-9.3-68-28s-28-41.3-28-68V736c0-26.7,9.3-49.3,28-68
	s41.3-28,68-28h192c26.7,0,49.3,9.3,68,28S1600,709.3,1600,736z"/>
</svg>
