<?xml version="1.0" encoding="iso-8859-1"?>
<!-- Generator: Adobe Illustrator 19.2.0, SVG Export Plug-In . SVG Version: 6.00 Build 0)  -->
<svg version="1.1" id="Layer_1" xmlns="http://www.w3.org/2000/svg" xmlns:xlink="http://www.w3.org/1999/xlink" x="0px" y="0px"
	 width="1792px" height="1792px" viewBox="0 0 1792 1792" enable-background="new 0 0 1792 1792" xml:space="preserve">
<path d="M896,1583.5c-105.7,0-208.2-18-304.8-53.4c-93.6-34.3-177.7-83.5-250-146.2c-72.7-63-129.9-136.5-169.9-218.5
	c-41.6-85.3-62.7-176-62.7-269.5s21.1-184.2,62.7-269.5c40-82,97.1-155.5,169.9-218.5c72.3-62.7,156.4-111.9,250-146.2
	c96.6-35.4,199.2-53.4,304.8-53.4s208.2,18,304.8,53.4c93.6,34.3,177.7,83.5,250,146.2c72.7,63,129.9,136.5,169.9,218.5
	c41.6,85.3,62.7,176,62.7,269.5s-21.1,184.2-62.7,269.5c-40,82-97.1,155.5-169.9,218.5c-72.3,62.7-156.4,111.9-250,146.2
	C1104.2,1565.5,1001.7,1583.5,896,1583.5z M896,283.5c-392.8,0-712.5,274.8-712.5,612.5s319.6,612.5,712.5,612.5
	c392.8,0,712.5-274.8,712.5-612.5S1288.8,283.5,896,283.5z"/>
</svg>
