<?xml version="1.0" encoding="iso-8859-1"?>
<!-- Generator: Adobe Illustrator 19.2.0, SVG Export Plug-In . SVG Version: 6.00 Build 0)  -->
<svg version="1.1" id="Layer_1" xmlns="http://www.w3.org/2000/svg" xmlns:xlink="http://www.w3.org/1999/xlink" x="0px" y="0px"
	 width="1792px" height="1792px" viewBox="0 0 1792 1792" enable-background="new 0 0 1792 1792" xml:space="preserve">
<path d="M789,559l-170,450c22,0,67.5,0.7,136.5,2s122.5,2,160.5,2c12.7,0,31.7-0.7,57-2C915,842.3,853.7,691.7,789,559z M64,1664
	l2-79c15.3-4.7,34-8.8,56-12.5s41-7.2,57-10.5s32.5-8.2,49.5-14.5s31.8-16,44.5-29s23-29.8,31-50.5l237-616l280-724h128
	c5.3,9.3,9,16.3,11,21l205,480c22,52,57.3,137.8,106,257.5s86.7,211.2,114,274.5c10,22.7,29.3,70.8,58,144.5s52.7,129.8,72,168.5
	c13.3,30,25,49,35,57c12.7,10,42,19.8,88,29.5s74,16.5,84,20.5c4,25.3,6,44.3,6,57c0,3.3-0.2,7.8-0.5,13.5s-0.5,9.8-0.5,12.5
	c-42,0-105.3-2.7-190-8s-148.3-8-191-8c-50.7,0-122.3,2.3-215,7s-152,7.3-178,8c0-28.7,1.3-54.7,4-78l131-28c0.7,0,4.8-0.8,12.5-2.5
	s12.8-2.8,15.5-3.5s7.5-2.2,14.5-4.5s12-4.5,15-6.5s6.7-4.7,11-8s7.3-7,9-11s2.5-8.7,2.5-14c0-10.7-10.3-42.8-31-96.5
	s-44.7-112.8-72-177.5s-41.3-98-42-100l-450-2c-17.3,38.7-42.8,103.8-76.5,195.5S446,1472.3,446,1489c0,14.7,4.7,27.2,14,37.5
	s23.8,18.5,43.5,24.5c19.7,6,35.8,10.5,48.5,13.5s31.7,5.8,57,8.5s39,4,41,4c0.7,12.7,1,32,1,58c0,6-0.7,15-2,27
	c-38.7,0-96.8-3.3-174.5-10s-135.8-10-174.5-10c-5.3,0-14.2,1.3-26.5,4s-19.5,4-21.5,4C198.7,1659.3,136,1664,64,1664z"/>
</svg>
