<?xml version="1.0" encoding="iso-8859-1"?>
<!-- Generator: Adobe Illustrator 19.2.0, SVG Export Plug-In . SVG Version: 6.00 Build 0)  -->
<svg version="1.1" id="Layer_1" xmlns="http://www.w3.org/2000/svg" xmlns:xlink="http://www.w3.org/1999/xlink" x="0px" y="0px"
	 width="1792px" height="1792px" viewBox="0 0 1792 1792" enable-background="new 0 0 1792 1792" xml:space="preserve">
<path d="M1639.8,298v-80h-68v-69h-80v69h-329v-69h-80v69h-358v-69h-80v69h-353v-69h-80v69h-72.1v80h72.1v327h-72.1v80h72.1v360
	h-72.1v80h72.1v353h-72.1v80h72.1v71.1h80V1578h353v71.1h80V1578h358v71.1h80V1578h329v71.1h80V1578h68v-80h-68v-353h68v-80h-68V705
	h68v-80h-68V298H1639.8z M1082.7,298v327h-358V298H1082.7z M1082.7,705v360h-358V705H1082.7z M291.8,298h353v327h-353V298z
	 M291.8,705h353v360h-353V705z M291.8,1498v-353h353v353H291.8z M724.7,1498v-353h358v353H724.7z M1491.8,1498h-329v-353h329V1498z
	 M1491.8,1065h-329V705h329V1065z M1491.8,625h-329V298h329V625z"/>
</svg>
