<?xml version="1.0" encoding="iso-8859-1"?>
<!-- Generator: Adobe Illustrator 19.2.0, SVG Export Plug-In . SVG Version: 6.00 Build 0)  -->
<svg version="1.1" id="Layer_1" xmlns="http://www.w3.org/2000/svg" xmlns:xlink="http://www.w3.org/1999/xlink" x="0px" y="0px"
	 width="1792px" height="1792px" viewBox="0 0 1792 1792" enable-background="new 0 0 1792 1792" xml:space="preserve">
<path d="M960,1565l640-349V580L960,813V1565z M896,700l698-254L896,192L198,446L896,700z M1728,448v768c0,23.3-6,45-18,65
	s-28.3,35.7-49,47l-704,384c-18.7,10.7-39,16-61,16s-42.3-5.3-61-16l-704-384c-20.7-11.3-37-27-49-47s-18-41.7-18-65V448
	c0-26.7,7.7-51,23-73s35.7-37.7,61-47L852,72c14.7-5.3,29.3-8,44-8s29.3,2.7,44,8l704,256c25.3,9.3,45.7,25,61,47
	S1728,421.3,1728,448z"/>
</svg>
