<?xml version="1.0" encoding="iso-8859-1"?>
<!-- Generator: Adobe Illustrator 19.2.0, SVG Export Plug-In . SVG Version: 6.00 Build 0)  -->
<svg version="1.1" id="Layer_1" xmlns="http://www.w3.org/2000/svg" xmlns:xlink="http://www.w3.org/1999/xlink" x="0px" y="0px"
	 width="1792px" height="1792px" viewBox="0 0 1792 1792" enable-background="new 0 0 1792 1792" xml:space="preserve">
<path d="M512,0c8.7,0,16.2,3.2,22.5,9.5S544,23.3,544,32v1472c0,13.3-5.7,22.7-17,28L47,1788c-4.7,2.7-9.7,4-15,4
	c-8.7,0-16.2-3.2-22.5-9.5S0,1768.7,0,1760V288c0-13.3,5.7-22.7,17-28L497,4C501.7,1.3,506.7,0,512,0z M1760,0
	c8.7,0,16.2,3.2,22.5,9.5s9.5,13.8,9.5,22.5v1472c0,13.3-5.7,22.7-17,28l-480,256c-4.7,2.7-9.7,4-15,4c-8.7,0-16.2-3.2-22.5-9.5
	s-9.5-13.8-9.5-22.5V288c0-13.3,5.7-22.7,17-28L1745,4C1749.7,1.3,1754.7,0,1760,0z M640,0c5.3,0,10,1,14,3l512,256
	c12,6.7,18,16.3,18,29v1472c0,8.7-3.2,16.2-9.5,22.5s-13.8,9.5-22.5,9.5c-5.3,0-10-1-14-3l-512-256c-12-6.7-18-16.3-18-29V32
	c0-8.7,3.2-16.2,9.5-22.5S631.3,0,640,0z"/>
</svg>
