<?xml version="1.0" encoding="iso-8859-1"?>
<!-- Generator: Adobe Illustrator 19.2.0, SVG Export Plug-In . SVG Version: 6.00 Build 0)  -->
<svg version="1.1" id="Layer_1" xmlns="http://www.w3.org/2000/svg" xmlns:xlink="http://www.w3.org/1999/xlink" x="0px" y="0px"
	 width="2048px" height="1792px" viewBox="0 0 2048 1792" enable-background="new 0 0 2048 1792" xml:space="preserve">
<path d="M1943,952c0,20.7-10.3,42.7-31,66l-336,396c-28.7,34-68.8,62.8-120.5,86.5S1356,1536,1312,1536H224
	c-22.7,0-42.8-4.3-60.5-13s-26.5-23-26.5-43c0-20.7,10.3-42.7,31-66l336-396c28.7-34,68.8-62.8,120.5-86.5S724,896,768,896h1088
	c22.7,0,42.8,4.3,60.5,13S1943,932,1943,952z M1600,608v160H768c-62.7,0-128.3,15.8-197,47.5S447.7,887,407,935L70,1331l-5,6
	c0-2.7-0.2-6.8-0.5-12.5s-0.5-9.8-0.5-12.5V352c0-61.3,22-114,66-158s96.7-66,158-66h320c61.3,0,114,22,158,66s66,96.7,66,158v32
	h544c61.3,0,114,22,158,66S1600,546.7,1600,608z"/>
</svg>
