<?xml version="1.0" encoding="iso-8859-1"?>
<!-- Generator: Adobe Illustrator 19.2.0, SVG Export Plug-In . SVG Version: 6.00 Build 0)  -->
<svg version="1.1" id="Layer_1" xmlns="http://www.w3.org/2000/svg" xmlns:xlink="http://www.w3.org/1999/xlink" x="0px" y="0px"
	 width="1792px" height="1792px" viewBox="0 0 1792 1792" enable-background="new 0 0 1792 1792" xml:space="preserve">
<path d="M1615,0c46.7,0,87.5,15.5,122.5,46.5S1790,116.3,1790,163c0,42-15,92.3-45,151c-221.3,419.3-376.3,670-465,752
	c-64.7,60.7-137.3,91-218,91c-84,0-156.2-30.8-216.5-92.5S755,929.7,755,845c0-85.3,30.7-156,92-212l638-579
	C1524.3,18,1567.7,0,1615,0z M706,1034c26,50.7,61.5,94,106.5,130s95.2,61.3,150.5,76l1,71c2.7,142-40.5,257.7-129.5,347
	S629.3,1792,486,1792c-82,0-154.7-15.5-218-46.5S153.8,1672,115.5,1618S48.3,1503,29,1435S0,1293.7,0,1215c4.7,3.3,18.3,13.3,41,30
	s43.3,31.5,62,44.5s38.3,25.2,59,36.5s36,17,46,17c27.3,0,45.7-12.3,55-37c16.7-44,35.8-81.5,57.5-112.5s44.8-56.3,69.5-76
	s54-35.5,88-47.5s68.3-20.5,103-25.5S657.3,1036,706,1034z"/>
</svg>
