<?xml version="1.0" encoding="iso-8859-1"?>
<!-- Generator: Adobe Illustrator 19.2.0, SVG Export Plug-In . SVG Version: 6.00 Build 0)  -->
<svg version="1.1" id="Layer_1" xmlns="http://www.w3.org/2000/svg" xmlns:xlink="http://www.w3.org/1999/xlink" x="0px" y="0px"
	 width="1792px" height="1792px" viewBox="0 0 1792 1792" enable-background="new 0 0 1792 1792" xml:space="preserve">
<path d="M1386.8,1085.9H111.3c-20.7,0-37.5-16.8-37.5-37.5V134.9c0-20.7,16.8-37.5,37.5-37.5h1275.5c20.7,0,37.5,16.8,37.5,37.5
	v913.4C1424.3,1069.1,1407.5,1085.9,1386.8,1085.9z M148.8,1010.9h1200.5V172.4H148.8V1010.9z"/>
<rect x="417" y="747.9" fill="#FFFFFF" width="1275.5" height="913.4"/>
<path d="M1692.5,1698.8H417c-20.7,0-37.5-16.8-37.5-37.5V747.9c0-20.7,16.8-37.5,37.5-37.5h1275.5c20.7,0,37.5,16.8,37.5,37.5v913.4
	C1730,1682.1,1713.2,1698.8,1692.5,1698.8z M454.5,1623.8H1655V785.4H454.5V1623.8z"/>
</svg>
