<?xml version="1.0" encoding="iso-8859-1"?>
<!-- Generator: Adobe Illustrator 19.2.0, SVG Export Plug-In . SVG Version: 6.00 Build 0)  -->
<svg version="1.1" id="Layer_1" xmlns="http://www.w3.org/2000/svg" xmlns:xlink="http://www.w3.org/1999/xlink" x="0px" y="0px"
	 width="1792px" height="1792px" viewBox="0 0 1792 1792" enable-background="new 0 0 1792 1792" xml:space="preserve">
<path d="M1531.9,1583.5H260.1c-83.6,0-151.6-68-151.6-151.6V360.1c0-83.6,68-151.6,151.6-151.6h1271.7c83.6,0,151.6,68,151.6,151.6
	v1071.7c0.1,40.3-15.7,78.4-44.4,107.1C1610.3,1567.7,1572.3,1583.5,1531.9,1583.5z M260.1,283.5c-42.2,0-76.6,34.4-76.6,76.6
	v1071.8c0,42.2,34.4,76.6,76.6,76.6h1271.8c20.3,0,39.5-8,54-22.6c14.5-14.5,22.5-33.8,22.5-54.1V360.1c0-42.2-34.4-76.6-76.6-76.6
	H260.1z"/>
</svg>
