<?xml version="1.0" encoding="iso-8859-1"?>
<!-- Generator: Adobe Illustrator 19.2.0, SVG Export Plug-In . SVG Version: 6.00 Build 0)  -->
<svg version="1.1" id="Layer_1" xmlns="http://www.w3.org/2000/svg" xmlns:xlink="http://www.w3.org/1999/xlink" x="0px" y="0px"
	 width="1792px" height="1792px" viewBox="0 0 1792 1792" enable-background="new 0 0 1792 1792" xml:space="preserve">
<path d="M1346.2,709v149.5h376.2v75h-376.2V1083l-323.8-187L1346.2,709z M263.3,1583.5H1535c83.6,0,151.6-68,151.6-151.6V1158h-75
	v273.9c0,42.2-34.4,76.6-76.6,76.6H263.3c-42.2,0-76.6-34.4-76.6-76.6V360.1c0-20.3,7.9-39.5,22.5-54.1c14.5-14.5,33.7-22.6,54-22.6
	H1535c42.2,0,76.6,34.4,76.6,76.6V634h75V360.1c0-83.6-68-151.6-151.6-151.6H263.2c-40.4,0-78.4,15.8-107.1,44.6
	c-28.7,28.7-44.5,66.8-44.4,107.1v1071.7C111.7,1515.5,179.7,1583.5,263.3,1583.5z"/>
</svg>
