<?xml version="1.0" encoding="iso-8859-1"?>
<!-- Generator: Adobe Illustrator 19.2.0, SVG Export Plug-In . SVG Version: 6.00 Build 0)  -->
<svg version="1.1" id="Layer_1" xmlns="http://www.w3.org/2000/svg" xmlns:xlink="http://www.w3.org/1999/xlink" x="0px" y="0px"
	 width="1792px" height="1792px" viewBox="0 0 1792 1792" enable-background="new 0 0 1792 1792" xml:space="preserve">
<path fill="#231F20" d="M1531.8,208.5H260.1c-83.6,0-151.6,68-151.6,151.6v1071.8c0,83.6,68,151.6,151.6,151.6h1271.8
	c40.4,0,78.4-15.8,107.1-44.6c28.7-28.7,44.5-66.8,44.4-107.1V360.1C1683.4,276.5,1615.4,208.5,1531.8,208.5z M1585.9,1485.9
	c-14.5,14.5-33.7,22.6-54,22.6H260.1c-42.2,0-76.6-34.4-76.6-76.6V360.1c0-42.2,34.4-76.6,76.6-76.6h951.8l396.6,391.3v757.1
	C1608.4,1452.2,1600.5,1471.4,1585.9,1485.9z"/>
</svg>
