<?xml version="1.0" encoding="iso-8859-1"?>
<!-- Generator: Adobe Illustrator 19.2.0, SVG Export Plug-In . SVG Version: 6.00 Build 0)  -->
<svg version="1.1" id="Layer_1" xmlns="http://www.w3.org/2000/svg" xmlns:xlink="http://www.w3.org/1999/xlink" x="0px" y="0px"
	 width="1792px" height="1792px" viewBox="0 0 1792 1792" enable-background="new 0 0 1792 1792" xml:space="preserve">
<path d="M512,1536h768v-384H512V1536z M1408,1536h128V640c0-9.3-3.3-22.2-10-38.5s-13.3-27.8-20-34.5l-281-281
	c-6.7-6.7-18-13.3-34-20s-29-10-39-10v416c0,26.7-9.3,49.3-28,68s-41.3,28-68,28H480c-26.7,0-49.3-9.3-68-28s-28-41.3-28-68V256H256
	v1280h128v-416c0-26.7,9.3-49.3,28-68s41.3-28,68-28h832c26.7,0,49.3,9.3,68,28s28,41.3,28,68V1536z M1024,608V288
	c0-8.7-3.2-16.2-9.5-22.5s-13.8-9.5-22.5-9.5H800c-8.7,0-16.2,3.2-22.5,9.5S768,279.3,768,288v320c0,8.7,3.2,16.2,9.5,22.5
	s13.8,9.5,22.5,9.5h192c8.7,0,16.2-3.2,22.5-9.5S1024,616.7,1024,608z M1664,640v928c0,26.7-9.3,49.3-28,68s-41.3,28-68,28H224
	c-26.7,0-49.3-9.3-68-28s-28-41.3-28-68V224c0-26.7,9.3-49.3,28-68s41.3-28,68-28h928c26.7,0,56,6.7,88,20s57.3,29.3,76,48l280,280
	c18.7,18.7,34.7,44,48,76S1664,613.3,1664,640z"/>
</svg>
