<?xml version="1.0" encoding="iso-8859-1"?>
<!-- Generator: Adobe Illustrator 19.2.0, SVG Export Plug-In . SVG Version: 6.00 Build 0)  -->
<svg version="1.1" id="Layer_1" xmlns="http://www.w3.org/2000/svg" xmlns:xlink="http://www.w3.org/1999/xlink" x="0px" y="0px"
	 width="1792px" height="1792px" viewBox="0 0 1792 1792" enable-background="new 0 0 1792 1792" xml:space="preserve">
<path d="M480,1408v128H128v-128H480z M832,1280c17.3,0,32.3,6.3,45,19s19,27.7,19,45v256c0,17.3-6.3,32.3-19,45s-27.7,19-45,19H576
	c-17.3,0-32.3-6.3-45-19s-19-27.7-19-45v-256c0-17.3,6.3-32.3,19-45s27.7-19,45-19H832z M992,896v128H128V896H992z M352,384v128H128
	V384H352z M1664,1408v128H928v-128H1664z M704,256c17.3,0,32.3,6.3,45,19s19,27.7,19,45v256c0,17.3-6.3,32.3-19,45s-27.7,19-45,19
	H448c-17.3,0-32.3-6.3-45-19s-19-27.7-19-45V320c0-17.3,6.3-32.3,19-45s27.7-19,45-19H704z M1344,768c17.3,0,32.3,6.3,45,19
	s19,27.7,19,45v256c0,17.3-6.3,32.3-19,45s-27.7,19-45,19h-256c-17.3,0-32.3-6.3-45-19s-19-27.7-19-45V832c0-17.3,6.3-32.3,19-45
	s27.7-19,45-19H1344z M1664,896v128h-224V896H1664z M1664,384v128H800V384H1664z"/>
</svg>
