<?xml version="1.0" encoding="iso-8859-1"?>
<!-- Generator: Adobe Illustrator 19.2.0, SVG Export Plug-In . SVG Version: 6.00 Build 0)  -->
<svg version="1.1" id="Layer_1" xmlns="http://www.w3.org/2000/svg" xmlns:xlink="http://www.w3.org/1999/xlink" x="0px" y="0px"
	 width="1792px" height="1792px" viewBox="0 0 1792 1792" enable-background="new 0 0 1792 1792" xml:space="preserve">
<path d="M704,1376V672c0-9.3-3-17-9-23s-13.7-9-23-9h-64c-9.3,0-17,3-23,9s-9,13.7-9,23v704c0,9.3,3,17,9,23s13.7,9,23,9h64
	c9.3,0,17-3,23-9S704,1385.3,704,1376z M960,1376V672c0-9.3-3-17-9-23s-13.7-9-23-9h-64c-9.3,0-17,3-23,9s-9,13.7-9,23v704
	c0,9.3,3,17,9,23s13.7,9,23,9h64c9.3,0,17-3,23-9S960,1385.3,960,1376z M1216,1376V672c0-9.3-3-17-9-23s-13.7-9-23-9h-64
	c-9.3,0-17,3-23,9s-9,13.7-9,23v704c0,9.3,3,17,9,23s13.7,9,23,9h64c9.3,0,17-3,23-9S1216,1385.3,1216,1376z M672,384h448l-48-117
	c-4.7-6-10.3-9.7-17-11H738c-6.7,1.3-12.3,5-17,11L672,384z M1600,416v64c0,9.3-3,17-9,23s-13.7,9-23,9h-96v948
	c0,55.3-15.7,103.2-47,143.5s-69,60.5-113,60.5H480c-44,0-81.7-19.5-113-58.5s-47-86.2-47-141.5V512h-96c-9.3,0-17-3-23-9
	s-9-13.7-9-23v-64c0-9.3,3-17,9-23s13.7-9,23-9h309l70-167c10-24.7,28-45.7,54-63s52.3-26,79-26h320c26.7,0,53,8.7,79,26
	s44,38.3,54,63l70,167h309c9.3,0,17,3,23,9S1600,406.7,1600,416z"/>
</svg>
