<?xml version="1.0" encoding="iso-8859-1"?>
<!-- Generator: Adobe Illustrator 19.2.0, SVG Export Plug-In . SVG Version: 6.00 Build 0)  -->
<svg version="1.1" id="Layer_1" xmlns="http://www.w3.org/2000/svg" xmlns:xlink="http://www.w3.org/1999/xlink" x="0px" y="0px"
	 width="1792px" height="1792px" viewBox="0 0 1792 1792" enable-background="new 0 0 1792 1792" xml:space="preserve">
<path d="M1088,800v64c0,8.7-3.2,16.2-9.5,22.5s-13.8,9.5-22.5,9.5H480c-8.7,0-16.2-3.2-22.5-9.5S448,872.7,448,864v-64
	c0-8.7,3.2-16.2,9.5-22.5s13.8-9.5,22.5-9.5h576c8.7,0,16.2,3.2,22.5,9.5S1088,791.3,1088,800z M1216,832
	c0-123.3-43.8-228.8-131.5-316.5S891.3,384,768,384s-228.8,43.8-316.5,131.5S320,708.7,320,832s43.8,228.8,131.5,316.5
	S644.7,1280,768,1280s228.8-43.8,316.5-131.5S1216,955.3,1216,832z M1728,1664c0,35.3-12.5,65.5-37.5,90.5s-55.2,37.5-90.5,37.5
	c-36,0-66-12.7-90-38l-343-342c-119.3,82.7-252.3,124-399,124c-95.3,0-186.5-18.5-273.5-55.5s-162-87-225-150s-113-138-150-225
	S64,927.3,64,832s18.5-186.5,55.5-273.5s87-162,150-225s138-113,225-150S672.7,128,768,128s186.5,18.5,273.5,55.5s162,87,225,150
	s113,138,150,225S1472,736.7,1472,832c0,146.7-41.3,279.7-124,399l343,343C1715.7,1598.7,1728,1628.7,1728,1664z"/>
</svg>
