<svg xmlns="http://www.w3.org/2000/svg">
    <symbol viewBox="0 0 1792 1792" id="actor">
        <path d="M1536,1399c0,72.7-20.8,135-62.5,187s-91.8,78-150.5,78H469c-58.7,0-108.8-26-150.5-78S256,1471.7,256,1399
	c0-56.7,2.8-110.2,8.5-160.5s16.2-101,31.5-152s34.8-94.7,58.5-131s55-66,94-89S532.3,832,583,832c87.3,85.3,191.7,128,313,128
	s225.7-42.7,313-128c50.7,0,95.5,11.5,134.5,34.5s70.3,52.7,94,89s43.2,80,58.5,131s25.8,101.7,31.5,152S1536,1342.3,1536,1399z
	 M1280,512c0,106-37.5,196.5-112.5,271.5S1002,896,896,896s-196.5-37.5-271.5-112.5S512,618,512,512s37.5-196.5,112.5-271.5
	S790,128,896,128s196.5,37.5,271.5,112.5S1280,406,1280,512z" />
    </symbol>
    <symbol viewBox="0 0 1792 1792" id="arrow">
        <path d="M1029.9,1611.5l-277.4-554.7l-278.2,285.8l15.6-1181.7l859.9,750.4l-371,37.1l270,553.6L1029.9,1611.5z M768.5,954.4
	l288.3,576.6l112.1-56.1L887.1,897.3l318.8-31.9l-657.7-574l-11.9,901.5L768.5,954.4z" />
    </symbol>
    <symbol viewBox="0 0 512 512" id="arrows">
        <path d="M504.93 239.07l-79.7-79C410 145 384 155.67 384 177v158c0 21.34 26 32 41.23 16.93l79.7-79 .2-.2a23.8 23.8 0 0 0-.2-33.66zm-418.16-79l-79.7 79-.2.2a23.8 23.8 0 0 0 .2 33.66l79.7 79C102 367 128 356.33 128 335V177c0-21.34-26-32-41.23-16.93zM335 384H177c-21.34 0-32 26-16.93 41.23l79 79.7.2.2a23.8 23.8 0 0 0 33.66-.2l79-79.7C367 410 356.33 384 335 384zM272.93 7.07l-.2-.2a23.8 23.8 0 0 0-33.66.2l-79 79.7C145 102 155.67 128 177 128h158c21.34 0 32-26 16.93-41.23z" />
    </symbol>
    <symbol viewBox="0 0 1792 1792" id="bars">
        <path d="M1664,1344v128c0,17.3-6.3,32.3-19,45s-27.7,19-45,19H192c-17.3,0-32.3-6.3-45-19s-19-27.7-19-45v-128
	c0-17.3,6.3-32.3,19-45s27.7-19,45-19h1408c17.3,0,32.3,6.3,45,19S1664,1326.7,1664,1344z M1664,832v128c0,17.3-6.3,32.3-19,45
	s-27.7,19-45,19H192c-17.3,0-32.3-6.3-45-19s-19-27.7-19-45V832c0-17.3,6.3-32.3,19-45s27.7-19,45-19h1408c17.3,0,32.3,6.3,45,19
	S1664,814.7,1664,832z M1664,320v128c0,17.3-6.3,32.3-19,45s-27.7,19-45,19H192c-17.3,0-32.3-6.3-45-19s-19-27.7-19-45V320
	c0-17.3,6.3-32.3,19-45s27.7-19,45-19h1408c17.3,0,32.3,6.3,45,19S1664,302.7,1664,320z" />
    </symbol>
    <symbol viewBox="0 0 1792 1792" id="block-border">
        <path fill="#010101" d="M1683.4,1587.4H111.1V210h1572.3V1587.4z M186.1,1512.4h1422.3V285H186.1V1512.4z" />
    </symbol>
    <symbol viewBox="0 0 1792 1792" id="block-fill">
        <path fill="#010101" d="M186.1,1512.4h1422.3V285H186.1V1512.4z" />
    </symbol>
    <symbol viewBox="0 0 1792 1792" id="block">
        <g>
            <rect x="148.6" y="247.5" fill="#FFFFFF" width="1497.3" height="1302.4" />
            <path fill="#010101" d="M1683.4,1587.4H111.1V210h1572.3V1587.4z" />
        </g>
    </symbol>
    <symbol viewBox="0 0 1792 1792" id="center">
        <path d="M1325,1024h-109c-17.3,0-32.3-6.3-45-19s-19-27.7-19-45V832c0-17.3,6.3-32.3,19-45s27.7-19,45-19h109
	c-21.3-72-58.8-134.8-112.5-188.5S1096,488.3,1024,467v109c0,17.3-6.3,32.3-19,45s-27.7,19-45,19H832c-17.3,0-32.3-6.3-45-19
	s-19-27.7-19-45V467c-72,21.3-134.8,58.8-188.5,112.5S488.3,696,467,768h109c17.3,0,32.3,6.3,45,19s19,27.7,19,45v128
	c0,17.3-6.3,32.3-19,45s-27.7,19-45,19H467c21.3,72,58.8,134.8,112.5,188.5S696,1303.7,768,1325v-109c0-17.3,6.3-32.3,19-45
	s27.7-19,45-19h128c17.3,0,32.3,6.3,45,19s19,27.7,19,45v109c72-21.3,134.8-58.8,188.5-112.5S1303.7,1096,1325,1024z M1664,832v128
	c0,17.3-6.3,32.3-19,45s-27.7,19-45,19h-143c-24.7,107.3-76.2,200.2-154.5,278.5S1131.3,1432.3,1024,1457v143c0,17.3-6.3,32.3-19,45
	s-27.7,19-45,19H832c-17.3,0-32.3-6.3-45-19s-19-27.7-19-45v-143c-107.3-24.7-200.2-76.2-278.5-154.5S359.7,1131.3,335,1024H192
	c-17.3,0-32.3-6.3-45-19s-19-27.7-19-45V832c0-17.3,6.3-32.3,19-45s27.7-19,45-19h143c24.7-107.3,76.2-200.2,154.5-278.5
	S660.7,359.7,768,335V192c0-17.3,6.3-32.3,19-45s27.7-19,45-19h128c17.3,0,32.3,6.3,45,19s19,27.7,19,45v143
	c107.3,24.7,200.2,76.2,278.5,154.5S1432.3,660.7,1457,768h143c17.3,0,32.3,6.3,45,19S1664,814.7,1664,832z" />
    </symbol>
    <symbol viewBox="0 0 2048 1792" id="code">
        <path d="M681,1399l-50,50c-6.7,6.7-14.3,10-23,10s-16.3-3.3-23-10L119,983c-6.7-6.7-10-14.3-10-23s3.3-16.3,10-23l466-466
	c6.7-6.7,14.3-10,23-10s16.3,3.3,23,10l50,50c6.7,6.7,10,14.3,10,23s-3.3,16.3-10,23L288,960l393,393c6.7,6.7,10,14.3,10,23
	S687.7,1392.3,681,1399z M1272,332L899,1623c-2.7,8.7-7.8,15.2-15.5,19.5s-15.5,5.2-23.5,2.5l-62-17c-8.7-2.7-15.2-7.8-19.5-15.5
	s-5.2-15.8-2.5-24.5l373-1291c2.7-8.7,7.8-15.2,15.5-19.5s15.5-5.2,23.5-2.5l62,17c8.7,2.7,15.2,7.8,19.5,15.5
	S1274.7,323.3,1272,332z M1929,983l-466,466c-6.7,6.7-14.3,10-23,10s-16.3-3.3-23-10l-50-50c-6.7-6.7-10-14.3-10-23s3.3-16.3,10-23
	l393-393l-393-393c-6.7-6.7-10-14.3-10-23s3.3-16.3,10-23l50-50c6.7-6.7,14.3-10,23-10s16.3,3.3,23,10l466,466
	c6.7,6.7,10,14.3,10,23S1935.7,976.3,1929,983z" />
    </symbol>
    <symbol viewBox="0 0 1792 1792" id="ellipse">
        <path d="M896,1583.5c-105.7,0-208.2-18-304.8-53.4c-93.6-34.3-177.7-83.5-250-146.2c-72.7-63-129.9-136.5-169.9-218.5
	c-41.6-85.3-62.7-176-62.7-269.5s21.1-184.2,62.7-269.5c40-82,97.1-155.5,169.9-218.5c72.3-62.7,156.4-111.9,250-146.2
	c96.6-35.4,199.2-53.4,304.8-53.4s208.2,18,304.8,53.4c93.6,34.3,177.7,83.5,250,146.2c72.7,63,129.9,136.5,169.9,218.5
	c41.6,85.3,62.7,176,62.7,269.5s-21.1,184.2-62.7,269.5c-40,82-97.1,155.5-169.9,218.5c-72.3,62.7-156.4,111.9-250,146.2
	C1104.2,1565.5,1001.7,1583.5,896,1583.5z M896,283.5c-392.8,0-712.5,274.8-712.5,612.5s319.6,612.5,712.5,612.5
	c392.8,0,712.5-274.8,712.5-612.5S1288.8,283.5,896,283.5z" />
    </symbol>
    <symbol viewBox="0 0 1792 1792" id="ellipsis-h">
        <path d="M576,736v192c0,26.7-9.3,49.3-28,68s-41.3,28-68,28H288c-26.7,0-49.3-9.3-68-28s-28-41.3-28-68V736c0-26.7,9.3-49.3,28-68
	s41.3-28,68-28h192c26.7,0,49.3,9.3,68,28S576,709.3,576,736z M1088,736v192c0,26.7-9.3,49.3-28,68s-41.3,28-68,28H800
	c-26.7,0-49.3-9.3-68-28s-28-41.3-28-68V736c0-26.7,9.3-49.3,28-68s41.3-28,68-28h192c26.7,0,49.3,9.3,68,28S1088,709.3,1088,736z
	 M1600,736v192c0,26.7-9.3,49.3-28,68s-41.3,28-68,28h-192c-26.7,0-49.3-9.3-68-28s-28-41.3-28-68V736c0-26.7,9.3-49.3,28-68
	s41.3-28,68-28h192c26.7,0,49.3,9.3,68,28S1600,709.3,1600,736z" />
    </symbol>
    <symbol viewBox="0 0 1792 1792" id="font">
        <path d="M789,559l-170,450c22,0,67.5,0.7,136.5,2s122.5,2,160.5,2c12.7,0,31.7-0.7,57-2C915,842.3,853.7,691.7,789,559z M64,1664
	l2-79c15.3-4.7,34-8.8,56-12.5s41-7.2,57-10.5s32.5-8.2,49.5-14.5s31.8-16,44.5-29s23-29.8,31-50.5l237-616l280-724h128
	c5.3,9.3,9,16.3,11,21l205,480c22,52,57.3,137.8,106,257.5s86.7,211.2,114,274.5c10,22.7,29.3,70.8,58,144.5s52.7,129.8,72,168.5
	c13.3,30,25,49,35,57c12.7,10,42,19.8,88,29.5s74,16.5,84,20.5c4,25.3,6,44.3,6,57c0,3.3-0.2,7.8-0.5,13.5s-0.5,9.8-0.5,12.5
	c-42,0-105.3-2.7-190-8s-148.3-8-191-8c-50.7,0-122.3,2.3-215,7s-152,7.3-178,8c0-28.7,1.3-54.7,4-78l131-28c0.7,0,4.8-0.8,12.5-2.5
	s12.8-2.8,15.5-3.5s7.5-2.2,14.5-4.5s12-4.5,15-6.5s6.7-4.7,11-8s7.3-7,9-11s2.5-8.7,2.5-14c0-10.7-10.3-42.8-31-96.5
	s-44.7-112.8-72-177.5s-41.3-98-42-100l-450-2c-17.3,38.7-42.8,103.8-76.5,195.5S446,1472.3,446,1489c0,14.7,4.7,27.2,14,37.5
	s23.8,18.5,43.5,24.5c19.7,6,35.8,10.5,48.5,13.5s31.7,5.8,57,8.5s39,4,41,4c0.7,12.7,1,32,1,58c0,6-0.7,15-2,27
	c-38.7,0-96.8-3.3-174.5-10s-135.8-10-174.5-10c-5.3,0-14.2,1.3-26.5,4s-19.5,4-21.5,4C198.7,1659.3,136,1664,64,1664z" />
    </symbol>
    <symbol viewBox="0 0 1792 1792" id="grid">
        <path d="M1639.8,298v-80h-68v-69h-80v69h-329v-69h-80v69h-358v-69h-80v69h-353v-69h-80v69h-72.1v80h72.1v327h-72.1v80h72.1v360
	h-72.1v80h72.1v353h-72.1v80h72.1v71.1h80V1578h353v71.1h80V1578h358v71.1h80V1578h329v71.1h80V1578h68v-80h-68v-353h68v-80h-68V705
	h68v-80h-68V298H1639.8z M1082.7,298v327h-358V298H1082.7z M1082.7,705v360h-358V705H1082.7z M291.8,298h353v327h-353V298z
	 M291.8,705h353v360h-353V705z M291.8,1498v-353h353v353H291.8z M724.7,1498v-353h358v353H724.7z M1491.8,1498h-329v-353h329V1498z
	 M1491.8,1065h-329V705h329V1065z M1491.8,625h-329V298h329V625z" />
    </symbol>
    <symbol viewBox="0 0 512 512" id="help">
        <path d="M504 256c0 136.997-111.043 248-248 248S8 392.997 8 256C8 119.083 119.043 8 256 8s248 111.083 248 248zM262.655 90c-54.497 0-89.255 22.957-116.549 63.758-3.536 5.286-2.353 12.415 2.715 16.258l34.699 26.31c5.205 3.947 12.621 3.008 16.665-2.122 17.864-22.658 30.113-35.797 57.303-35.797 20.429 0 45.698 13.148 45.698 32.958 0 14.976-12.363 22.667-32.534 33.976C247.128 238.528 216 254.941 216 296v4c0 6.627 5.373 12 12 12h56c6.627 0 12-5.373 12-12v-1.333c0-28.462 83.186-29.647 83.186-106.667 0-58.002-60.165-102-116.531-102zM256 338c-25.365 0-46 20.635-46 46 0 25.364 20.635 46 46 46s46-20.636 46-46c0-25.365-20.635-46-46-46z" />
    </symbol>
    <symbol viewBox="0 0 1792 1792" id="item">
        <path d="M960,1565l640-349V580L960,813V1565z M896,700l698-254L896,192L198,446L896,700z M1728,448v768c0,23.3-6,45-18,65
	s-28.3,35.7-49,47l-704,384c-18.7,10.7-39,16-61,16s-42.3-5.3-61-16l-704-384c-20.7-11.3-37-27-49-47s-18-41.7-18-65V448
	c0-26.7,7.7-51,23-73s35.7-37.7,61-47L852,72c14.7-5.3,29.3-8,44-8s29.3,2.7,44,8l704,256c25.3,9.3,45.7,25,61,47
	S1728,421.3,1728,448z" />
    </symbol>
    <symbol viewBox="0 0 1792 1792" id="line-dash">
        <path d="M1696,946h-400V846h400V946z M1096,946H696V846h400V946z M496,946H96V846h400V946z" />
    </symbol>
    <symbol viewBox="0 0 1792 1792" id="line-dashdot">
        <path d="M1696,946h-250V846h250V946z M1246,946H996V846h250V946z M796,946H546V846h250V946z M346,946H96V846h250V946z" />
    </symbol>
    <symbol viewBox="0 0 1792 1792" id="line-dashdotdot">
        <path d="M1696,946l-200.1,0V846H1696V946z M1296,946l-100.1,0V846H1296V946z M996,946l-200.1,0V846H996V946z M596,946l-100.1,0V846
	H596V946z M296,946l-200.1,0V846H296V946z" />
    </symbol>
    <symbol viewBox="0 0 1792 1792" id="line-dot">
        <path d="M1696,946h-100V846h100V946z M1396,946h-100V846h100V946z M1096,946H996V846h100V946z M796,946H696V846h100V946z M496,946
	H396V846h100V946z M196,946H96V846h100V946z" />
    </symbol>
    <symbol viewBox="0 0 1792 1792" id="line-solid">
        <path d="M1696,946H96V846h1600V946z" />
    </symbol>
    <symbol viewBox="0 0 1792 1792" id="map">
        <path d="M512,0c8.7,0,16.2,3.2,22.5,9.5S544,23.3,544,32v1472c0,13.3-5.7,22.7-17,28L47,1788c-4.7,2.7-9.7,4-15,4
	c-8.7,0-16.2-3.2-22.5-9.5S0,1768.7,0,1760V288c0-13.3,5.7-22.7,17-28L497,4C501.7,1.3,506.7,0,512,0z M1760,0
	c8.7,0,16.2,3.2,22.5,9.5s9.5,13.8,9.5,22.5v1472c0,13.3-5.7,22.7-17,28l-480,256c-4.7,2.7-9.7,4-15,4c-8.7,0-16.2-3.2-22.5-9.5
	s-9.5-13.8-9.5-22.5V288c0-13.3,5.7-22.7,17-28L1745,4C1749.7,1.3,1754.7,0,1760,0z M640,0c5.3,0,10,1,14,3l512,256
	c12,6.7,18,16.3,18,29v1472c0,8.7-3.2,16.2-9.5,22.5s-13.8,9.5-22.5,9.5c-5.3,0-10-1-14-3l-512-256c-12-6.7-18-16.3-18-29V32
	c0-8.7,3.2-16.2,9.5-22.5S631.3,0,640,0z" />
    </symbol>
    <symbol viewBox="0 0 1792 1792" id="note-border">
        <path d="M1531.8,208.5H260.1c-83.6,0-151.6,68-151.6,151.6v1071.8c0,83.6,68,151.6,151.6,151.6h1271.8c40.4,0,78.4-15.8,107.1-44.6
	c28.7-28.7,44.5-66.8,44.4-107.1V360.1C1683.4,276.5,1615.4,208.5,1531.8,208.5z M1608.4,360.1V723l-489.2-439.5h412.6
	C1574,283.5,1608.4,317.9,1608.4,360.1z M1585.9,1485.9c-14.5,14.5-33.7,22.6-54,22.6H260.1c-42.2,0-76.6-34.4-76.6-76.6V360.1
	c0-42.2,34.4-76.6,76.6-76.6H1007l601.4,540.3v608C1608.4,1452.2,1600.5,1471.4,1585.9,1485.9z" />
    </symbol>
    <symbol viewBox="0 0 1792 1792" id="note-fill">
        <path d="M1608.4,360.1V723l-489.2-439.5h412.6C1574,283.5,1608.4,317.9,1608.4,360.1z M1585.9,1485.9c-14.5,14.5-33.7,22.6-54,22.6
	H260.1c-42.2,0-76.6-34.4-76.6-76.6V360.1c0-42.2,34.4-76.6,76.6-76.6H1007l601.4,540.3v608
	C1608.4,1452.2,1600.5,1471.4,1585.9,1485.9z" />
    </symbol>
    <symbol viewBox="0 0 1792 1792" id="note-text">
        <path d="M1531.8,208.5H260.1c-83.6,0-151.6,68-151.6,151.6v1071.8c0,83.6,68,151.6,151.6,151.6h1271.8c40.4,0,78.4-15.8,107.1-44.6
	c28.7-28.7,44.5-66.8,44.4-107.1V360.1C1683.4,276.5,1615.4,208.5,1531.8,208.5z M1608.4,360.1V723l-489.2-439.5h412.6
	C1574,283.5,1608.4,317.9,1608.4,360.1z M1585.9,1485.9c-14.5,14.5-33.7,22.6-54,22.6H260.1c-42.2,0-76.6-34.4-76.6-76.6V360.1
	c0-42.2,34.4-76.6,76.6-76.6H1007l601.4,540.3v608C1608.4,1452.2,1600.5,1471.4,1585.9,1485.9z M396,750h1000v75H396V750z M396,950
	h1000v75H396V950z" />
    </symbol>
    <symbol viewBox="0 0 1792 1792" id="note">
        <path d="M1531.8,208.5H260.1c-83.6,0-151.6,68-151.6,151.6v1071.8c0,83.6,68,151.6,151.6,151.6h1271.8c40.4,0,78.4-15.8,107.1-44.6
	c28.7-28.7,44.5-66.8,44.4-107.1V360.1C1683.4,276.5,1615.4,208.5,1531.8,208.5z M1608.4,360.1V723l-489.2-439.5h412.6
	C1574,283.5,1608.4,317.9,1608.4,360.1z M1585.9,1485.9c-14.5,14.5-33.7,22.6-54,22.6H260.1c-42.2,0-76.6-34.4-76.6-76.6V360.1
	c0-42.2,34.4-76.6,76.6-76.6H1007l601.4,540.3v608C1608.4,1452.2,1600.5,1471.4,1585.9,1485.9z" />
    </symbol>
    <symbol viewBox="0 0 1792 1792" id="octagon">
        <path d="M1220.6,1583.5H571.4l-462.8-401.1V609.6l462.8-401.1h649.3l462.8,401.1v572.7L1220.6,1583.5z M599.3,1508.5h593.3
	l415.8-360.4V643.9l-415.8-360.4H599.3L183.5,643.9v504.2L599.3,1508.5z" />
    </symbol>
    <symbol viewBox="0 0 2048 1792" id="open">
        <path d="M1943,952c0,20.7-10.3,42.7-31,66l-336,396c-28.7,34-68.8,62.8-120.5,86.5S1356,1536,1312,1536H224
	c-22.7,0-42.8-4.3-60.5-13s-26.5-23-26.5-43c0-20.7,10.3-42.7,31-66l336-396c28.7-34,68.8-62.8,120.5-86.5S724,896,768,896h1088
	c22.7,0,42.8,4.3,60.5,13S1943,932,1943,952z M1600,608v160H768c-62.7,0-128.3,15.8-197,47.5S447.7,887,407,935L70,1331l-5,6
	c0-2.7-0.2-6.8-0.5-12.5s-0.5-9.8-0.5-12.5V352c0-61.3,22-114,66-158s96.7-66,158-66h320c61.3,0,114,22,158,66s66,96.7,66,158v32
	h544c61.3,0,114,22,158,66S1600,546.7,1600,608z" />
    </symbol>
    <symbol viewBox="0 0 1792 1792" id="paintbrush">
        <path d="M1615,0c46.7,0,87.5,15.5,122.5,46.5S1790,116.3,1790,163c0,42-15,92.3-45,151c-221.3,419.3-376.3,670-465,752
	c-64.7,60.7-137.3,91-218,91c-84,0-156.2-30.8-216.5-92.5S755,929.7,755,845c0-85.3,30.7-156,92-212l638-579
	C1524.3,18,1567.7,0,1615,0z M706,1034c26,50.7,61.5,94,106.5,130s95.2,61.3,150.5,76l1,71c2.7,142-40.5,257.7-129.5,347
	S629.3,1792,486,1792c-82,0-154.7-15.5-218-46.5S153.8,1672,115.5,1618S48.3,1503,29,1435S0,1293.7,0,1215c4.7,3.3,18.3,13.3,41,30
	s43.3,31.5,62,44.5s38.3,25.2,59,36.5s36,17,46,17c27.3,0,45.7-12.3,55-37c16.7-44,35.8-81.5,57.5-112.5s44.8-56.3,69.5-76
	s54-35.5,88-47.5s68.3-20.5,103-25.5S657.3,1036,706,1034z" />
    </symbol>
    <symbol viewBox="0 0 1792 1792" id="position">
        <path d="M1386.8,1085.9H111.3c-20.7,0-37.5-16.8-37.5-37.5V134.9c0-20.7,16.8-37.5,37.5-37.5h1275.5c20.7,0,37.5,16.8,37.5,37.5
	v913.4C1424.3,1069.1,1407.5,1085.9,1386.8,1085.9z M148.8,1010.9h1200.5V172.4H148.8V1010.9z" />
        <rect x="417" y="747.9" fill="#FFFFFF" width="1275.5" height="913.4" />
        <path d="M1692.5,1698.8H417c-20.7,0-37.5-16.8-37.5-37.5V747.9c0-20.7,16.8-37.5,37.5-37.5h1275.5c20.7,0,37.5,16.8,37.5,37.5v913.4
	C1730,1682.1,1713.2,1698.8,1692.5,1698.8z M454.5,1623.8H1655V785.4H454.5V1623.8z" />
    </symbol>
    <symbol viewBox="0 0 1792 1792" id="rectangle">
        <path fill="#FFFFFF" stroke="#000000" stroke-width="75" stroke-miterlimit="10" d="M1531.9,1546H260.1
	c-62.8,0-114.1-51.4-114.1-114.1V360.1c0-62.8,51.4-114.1,114.1-114.1h1271.7c62.8,0,114.1,51.4,114.1,114.1v1071.7
	C1646,1494.6,1594.6,1546,1531.9,1546z" />
    </symbol>
    <symbol viewBox="0 0 1792 1792" id="room-border">
        <path d="M1531.9,1583.5H260.1c-83.6,0-151.6-68-151.6-151.6V360.1c0-83.6,68-151.6,151.6-151.6h1271.7c83.6,0,151.6,68,151.6,151.6
	v1071.7c0.1,40.3-15.7,78.4-44.4,107.1C1610.3,1567.7,1572.3,1583.5,1531.9,1583.5z M260.1,283.5c-42.2,0-76.6,34.4-76.6,76.6
	v1071.8c0,42.2,34.4,76.6,76.6,76.6h1271.8c20.3,0,39.5-8,54-22.6c14.5-14.5,22.5-33.8,22.5-54.1V360.1c0-42.2-34.4-76.6-76.6-76.6
	H260.1z" />
    </symbol>
    <symbol viewBox="0 0 1792 1792" id="room-darkness">
        <path fill="#231F20" d="M1531.8,208.5H260.1c-83.6,0-151.6,68-151.6,151.6v1071.8c0,83.6,68,151.6,151.6,151.6h1271.8
	c40.4,0,78.4-15.8,107.1-44.6c28.7-28.7,44.5-66.8,44.4-107.1V360.1C1683.4,276.5,1615.4,208.5,1531.8,208.5z M1585.9,1485.9
	c-14.5,14.5-33.7,22.6-54,22.6H260.1c-42.2,0-76.6-34.4-76.6-76.6V360.1c0-42.2,34.4-76.6,76.6-76.6h951.8l396.6,391.3v757.1
	C1608.4,1452.2,1600.5,1471.4,1585.9,1485.9z" />
    </symbol>
    <symbol viewBox="0 0 1792 1792" id="room-end">
        <path d="M1346.2,709v149.5h376.2v75h-376.2V1083l-323.8-187L1346.2,709z M263.3,1583.5H1535c83.6,0,151.6-68,151.6-151.6V1158h-75
	v273.9c0,42.2-34.4,76.6-76.6,76.6H263.3c-42.2,0-76.6-34.4-76.6-76.6V360.1c0-20.3,7.9-39.5,22.5-54.1c14.5-14.5,33.7-22.6,54-22.6
	H1535c42.2,0,76.6,34.4,76.6,76.6V634h75V360.1c0-83.6-68-151.6-151.6-151.6H263.2c-40.4,0-78.4,15.8-107.1,44.6
	c-28.7,28.7-44.5,66.8-44.4,107.1v1071.7C111.7,1515.5,179.7,1583.5,263.3,1583.5z" />
    </symbol>
    <symbol viewBox="0 0 1792 1792" id="room-fill">
        <path d="M260.1,283.5c-42.2,0-76.6,34.4-76.6,76.6v1071.8c0,42.2,34.4,76.6,76.6,76.6h1271.8c20.3,0,39.5-8,54-22.6
	c14.5-14.5,22.5-33.8,22.5-54.1V360.1c0-42.2-34.4-76.6-76.6-76.6H260.1z" />
    </symbol>
    <symbol viewBox="0 0 1792 1792" id="room-name">
        <path d="M1531.8,208.5H260.1c-83.6,0-151.6,68-151.6,151.6v1071.8c0,83.6,68,151.6,151.6,151.6h1271.8c40.4,0,78.4-15.8,107.1-44.6
	c28.7-28.7,44.5-66.8,44.4-107.1V360.1C1683.4,276.5,1615.4,208.5,1531.8,208.5z M1608.4,1431.9c0,20.3-7.9,39.5-22.5,54.1
	c-14.5,14.5-33.7,22.6-54,22.6H260.1c-42.2,0-76.6-34.4-76.6-76.6V360.1c0-42.2,34.4-76.6,76.6-76.6h1271.7
	c42.2,0,76.6,34.4,76.6,76.6V1431.9z M396,550h1000v75H396V550z M396,750h1000v75H396V750z" />
    </symbol>
    <symbol viewBox="0 0 1792 1792" id="room-start">
        <path d="M448.9,1083V933.5H72.7v-75h376.2V709l323.8,187L448.9,1083z M1531.8,208.5H260.1c-83.6,0-151.6,68-151.6,151.6V634h75
	V360.1c0-42.2,34.4-76.6,76.6-76.6h1271.7c42.2,0,76.6,34.4,76.6,76.6v1071.8c0,20.3-7.9,39.5-22.5,54.1
	c-14.5,14.5-33.7,22.6-54,22.6H260.1c-42.2,0-76.6-34.4-76.6-76.6V1158h-75v273.9c0,83.6,68,151.6,151.6,151.6h1271.8
	c40.4,0,78.4-15.8,107.1-44.6c28.7-28.7,44.5-66.8,44.4-107.1V360.1C1683.4,276.5,1615.4,208.5,1531.8,208.5z" />
    </symbol>
    <symbol viewBox="0 0 1792 1792" id="room-subtitle">
        <path d="M1531.9,1583.5H260.1c-83.6,0-151.6-68-151.6-151.6V360.1c0-83.6,68-151.6,151.6-151.6h1271.7c83.6,0,151.6,68,151.6,151.6
	v1071.7c0.1,40.3-15.7,78.4-44.4,107.1C1610.3,1567.7,1572.3,1583.5,1531.9,1583.5z M260.1,283.5c-42.2,0-76.6,34.4-76.6,76.6
	v1071.8c0,42.2,34.4,76.6,76.6,76.6h1271.8c20.3,0,39.5-8,54-22.6c14.5-14.5,22.5-33.8,22.5-54.1V360.1c0-42.2-34.4-76.6-76.6-76.6
	H260.1z M1266,1000H526v75h740V1000z M1266,1200H526v75h740V1200z" />
    </symbol>
    <symbol viewBox="0 0 1792 1792" id="room">
        <path fill="#FFFFFF" stroke="#000000" stroke-width="75" stroke-miterlimit="10" d="M1531.9,1546H260.1
	c-62.8,0-114.1-51.4-114.1-114.1V360.1c0-62.8,51.4-114.1,114.1-114.1h1271.7c62.8,0,114.1,51.4,114.1,114.1v1071.7
	C1646,1494.6,1594.6,1546,1531.9,1546z" />
    </symbol>
    <symbol viewBox="0 0 1792 1792" id="save">
        <path d="M512,1536h768v-384H512V1536z M1408,1536h128V640c0-9.3-3.3-22.2-10-38.5s-13.3-27.8-20-34.5l-281-281
	c-6.7-6.7-18-13.3-34-20s-29-10-39-10v416c0,26.7-9.3,49.3-28,68s-41.3,28-68,28H480c-26.7,0-49.3-9.3-68-28s-28-41.3-28-68V256H256
	v1280h128v-416c0-26.7,9.3-49.3,28-68s41.3-28,68-28h832c26.7,0,49.3,9.3,68,28s28,41.3,28,68V1536z M1024,608V288
	c0-8.7-3.2-16.2-9.5-22.5s-13.8-9.5-22.5-9.5H800c-8.7,0-16.2,3.2-22.5,9.5S768,279.3,768,288v320c0,8.7,3.2,16.2,9.5,22.5
	s13.8,9.5,22.5,9.5h192c8.7,0,16.2-3.2,22.5-9.5S1024,616.7,1024,608z M1664,640v928c0,26.7-9.3,49.3-28,68s-41.3,28-68,28H224
	c-26.7,0-49.3-9.3-68-28s-28-41.3-28-68V224c0-26.7,9.3-49.3,28-68s41.3-28,68-28h928c26.7,0,56,6.7,88,20s57.3,29.3,76,48l280,280
	c18.7,18.7,34.7,44,48,76S1664,613.3,1664,640z" />
    </symbol>
    <symbol viewBox="0 0 2048 1792" id="scenery">
        <path d="M704,576c0,53.3-18.7,98.7-56,136s-82.7,56-136,56s-98.7-18.7-136-56s-56-82.7-56-136s18.7-98.7,56-136s82.7-56,136-56
	s98.7,18.7,136,56S704,522.7,704,576z M1728,960v448H320v-192l320-320l160,160l512-512L1728,960z M1824,256H224
	c-8.7,0-16.2,3.2-22.5,9.5S192,279.3,192,288v1216c0,8.7,3.2,16.2,9.5,22.5s13.8,9.5,22.5,9.5h1600c8.7,0,16.2-3.2,22.5-9.5
	s9.5-13.8,9.5-22.5V288c0-8.7-3.2-16.2-9.5-22.5S1832.7,256,1824,256z M1984,288v1216c0,44-15.7,81.7-47,113s-69,47-113,47H224
	c-44,0-81.7-15.7-113-47s-47-69-47-113V288c0-44,15.7-81.7,47-113s69-47,113-47h1600c44,0,81.7,15.7,113,47S1984,244,1984,288z" />
    </symbol>
    <symbol viewBox="0 0 1792 1792" id="settings">
        <path d="M480,1408v128H128v-128H480z M832,1280c17.3,0,32.3,6.3,45,19s19,27.7,19,45v256c0,17.3-6.3,32.3-19,45s-27.7,19-45,19H576
	c-17.3,0-32.3-6.3-45-19s-19-27.7-19-45v-256c0-17.3,6.3-32.3,19-45s27.7-19,45-19H832z M992,896v128H128V896H992z M352,384v128H128
	V384H352z M1664,1408v128H928v-128H1664z M704,256c17.3,0,32.3,6.3,45,19s19,27.7,19,45v256c0,17.3-6.3,32.3-19,45s-27.7,19-45,19
	H448c-17.3,0-32.3-6.3-45-19s-19-27.7-19-45V320c0-17.3,6.3-32.3,19-45s27.7-19,45-19H704z M1344,768c17.3,0,32.3,6.3,45,19
	s19,27.7,19,45v256c0,17.3-6.3,32.3-19,45s-27.7,19-45,19h-256c-17.3,0-32.3-6.3-45-19s-19-27.7-19-45V832c0-17.3,6.3-32.3,19-45
	s27.7-19,45-19H1344z M1664,896v128h-224V896H1664z M1664,384v128H800V384H1664z" />
    </symbol>
    <symbol viewBox="0 0 1792 1792" id="times">
        <path d="M1490 1322q0 40-28 68l-136 136q-28 28-68 28t-68-28l-294-294-294 294q-28 28-68 28t-68-28l-136-136q-28-28-28-68t28-68l294-294-294-294q-28-28-28-68t28-68l136-136q28-28 68-28t68 28l294 294 294-294q28-28 68-28t68 28l136 136q28 28 28 68t-28 68l-294 294 294 294q28 28 28 68z" />
    </symbol>
    <symbol viewBox="0 0 1792 1792" id="trash">
        <path d="M704,1376V672c0-9.3-3-17-9-23s-13.7-9-23-9h-64c-9.3,0-17,3-23,9s-9,13.7-9,23v704c0,9.3,3,17,9,23s13.7,9,23,9h64
	c9.3,0,17-3,23-9S704,1385.3,704,1376z M960,1376V672c0-9.3-3-17-9-23s-13.7-9-23-9h-64c-9.3,0-17,3-23,9s-9,13.7-9,23v704
	c0,9.3,3,17,9,23s13.7,9,23,9h64c9.3,0,17-3,23-9S960,1385.3,960,1376z M1216,1376V672c0-9.3-3-17-9-23s-13.7-9-23-9h-64
	c-9.3,0-17,3-23,9s-9,13.7-9,23v704c0,9.3,3,17,9,23s13.7,9,23,9h64c9.3,0,17-3,23-9S1216,1385.3,1216,1376z M672,384h448l-48-117
	c-4.7-6-10.3-9.7-17-11H738c-6.7,1.3-12.3,5-17,11L672,384z M1600,416v64c0,9.3-3,17-9,23s-13.7,9-23,9h-96v948
	c0,55.3-15.7,103.2-47,143.5s-69,60.5-113,60.5H480c-44,0-81.7-19.5-113-58.5s-47-86.2-47-141.5V512h-96c-9.3,0-17-3-23-9
	s-9-13.7-9-23v-64c0-9.3,3-17,9-23s13.7-9,23-9h309l70-167c10-24.7,28-45.7,54-63s52.3-26,79-26h320c26.7,0,53,8.7,79,26
	s44,38.3,54,63l70,167h309c9.3,0,17,3,23,9S1600,406.7,1600,416z" />
    </symbol>
    <symbol viewBox="0 0 1792 1792" id="zoom-in">
        <path d="M1088,800v64c0,8.7-3.2,16.2-9.5,22.5s-13.8,9.5-22.5,9.5H832v224c0,8.7-3.2,16.2-9.5,22.5s-13.8,9.5-22.5,9.5h-64
	c-8.7,0-16.2-3.2-22.5-9.5s-9.5-13.8-9.5-22.5V896H480c-8.7,0-16.2-3.2-22.5-9.5S448,872.7,448,864v-64c0-8.7,3.2-16.2,9.5-22.5
	s13.8-9.5,22.5-9.5h224V544c0-8.7,3.2-16.2,9.5-22.5s13.8-9.5,22.5-9.5h64c8.7,0,16.2,3.2,22.5,9.5s9.5,13.8,9.5,22.5v224h224
	c8.7,0,16.2,3.2,22.5,9.5S1088,791.3,1088,800z M1216,832c0-123.3-43.8-228.8-131.5-316.5S891.3,384,768,384
	s-228.8,43.8-316.5,131.5S320,708.7,320,832s43.8,228.8,131.5,316.5S644.7,1280,768,1280s228.8-43.8,316.5-131.5
	S1216,955.3,1216,832z M1728,1664c0,35.3-12.5,65.5-37.5,90.5s-55.2,37.5-90.5,37.5c-36,0-66-12.7-90-38l-343-342
	c-119.3,82.7-252.3,124-399,124c-95.3,0-186.5-18.5-273.5-55.5s-162-87-225-150s-113-138-150-225S64,927.3,64,832
	s18.5-186.5,55.5-273.5s87-162,150-225s138-113,225-150S672.7,128,768,128s186.5,18.5,273.5,55.5s162,87,225,150s113,138,150,225
	S1472,736.7,1472,832c0,146.7-41.3,279.7-124,399l343,343C1715.7,1598.7,1728,1628.7,1728,1664z" />
    </symbol>
    <symbol viewBox="0 0 1792 1792" id="zoom-out">
        <path d="M1088,800v64c0,8.7-3.2,16.2-9.5,22.5s-13.8,9.5-22.5,9.5H480c-8.7,0-16.2-3.2-22.5-9.5S448,872.7,448,864v-64
	c0-8.7,3.2-16.2,9.5-22.5s13.8-9.5,22.5-9.5h576c8.7,0,16.2,3.2,22.5,9.5S1088,791.3,1088,800z M1216,832
	c0-123.3-43.8-228.8-131.5-316.5S891.3,384,768,384s-228.8,43.8-316.5,131.5S320,708.7,320,832s43.8,228.8,131.5,316.5
	S644.7,1280,768,1280s228.8-43.8,316.5-131.5S1216,955.3,1216,832z M1728,1664c0,35.3-12.5,65.5-37.5,90.5s-55.2,37.5-90.5,37.5
	c-36,0-66-12.7-90-38l-343-342c-119.3,82.7-252.3,124-399,124c-95.3,0-186.5-18.5-273.5-55.5s-162-87-225-150s-113-138-150-225
	S64,927.3,64,832s18.5-186.5,55.5-273.5s87-162,150-225s138-113,225-150S672.7,128,768,128s186.5,18.5,273.5,55.5s162,87,225,150
	s113,138,150,225S1472,736.7,1472,832c0,146.7-41.3,279.7-124,399l343,343C1715.7,1598.7,1728,1628.7,1728,1664z" />
    </symbol>
</svg>